<svg xmlns="http://www.w3.org/2000/svg" xmlns:xlink="http://www.w3.org/1999/xlink" xmlns:lucid="lucid" width="560.01" height="600"><g transform="translate(-259.9886288657735 -100)" lucid:page-tab-id="0_0"><path d="M0 0h1870.87v1322.83H0z" fill="#fff"/><path d="M560 200h240v60H560z" fill="none"/><use xlink:href="#a" transform="matrix(1,0,0,1,560,200) translate(54.346296296296316 35.37777777777778)"/><use xlink:href="#b" transform="matrix(1,0,0,1,560,200) translate(118.58086419753087 35.37777777777778)"/><path d="M280 126a6 6 0 0 1 6-6h168a6 6 0 0 1 6 6v68a6 6 0 0 1-6 6H286a6 6 0 0 1-6-6z" stroke="#4881b3" stroke-width="3" fill="#f5fbff"/><use xlink:href="#c" transform="matrix(1,0,0,1,285,125) translate(42.5 39.65277777777778)"/><path d="M280 206a6 6 0 0 1 6-6h168a6 6 0 0 1 6 6v108a6 6 0 0 1-6 6H286a6 6 0 0 1-6-6z" stroke="#4881b3" stroke-width="3" fill="#f5fbff"/><path d="M281 401.23h140.5M281.03 401.23H280" stroke="#224c72" stroke-width="2" fill="none"/><path d="M436.76 401.23l-14.26 4.63v-9.27z" stroke="#224c72" stroke-width="2" fill="#224c72"/><path d="M280 486.6a6 6 0 0 1 6-6h152a6 6 0 0 0 6-6v-8a2.3 2.3 0 0 1 4.02-1.53L476 496.15a6.67 6.67 0 0 1 0 8.92L448 536.15a2.3 2.3 0 0 1-4.02-1.54v-8a6 6 0 0 0-6-6H286a6 6 0 0 1-6-6zM475.76 635.76a6 6 0 0 1 0 8.48l-31.52 31.52A2.5 2.5 0 0 1 440 674v-8a6 6 0 0 0-6-6H326a6 6 0 0 0-6 6v8a2.5 2.5 0 0 1-4.24 1.76l-31.52-31.52a6 6 0 0 1 0-8.48l31.52-31.52A2.5 2.5 0 0 1 320 606v8a6 6 0 0 0 6 6h108a6 6 0 0 0 6-6v-8a2.5 2.5 0 0 1 4.24-1.76z" stroke="#4881b3" stroke-width="3" fill="#f5fbff"/><path d="M560 360h240v60H560z" fill="none"/><use xlink:href="#d" transform="matrix(1,0,0,1,560,360) translate(89.41388888888889 35.37777777777778)"/><path d="M560 470.6h240v60H560z" fill="none"/><use xlink:href="#e" transform="matrix(1,0,0,1,560,470.6137015078808) translate(50.64907407407409 35.37777777777778)"/><path d="M560 610h240v60H560z" fill="none"/><use xlink:href="#f" transform="matrix(1,0,0,1,560,610) translate(45.45802469135805 35.37777777777778)"/><use xlink:href="#g" transform="matrix(1,0,0,1,560,610) translate(140.91358024691357 35.37777777777778)"/><defs><path fill="#1d262b" d="M153-248C145-148 188 4 80 4 36 3 13-21 6-62l32-5c4 25 16 42 43 43 27 0 39-20 39-49v-147H72v-28h81" id="h"/><path fill="#1d262b" d="M141-36C126-15 110 5 73 4 37 3 15-17 15-53c-1-64 63-63 125-63 3-35-9-54-41-54-24 1-41 7-42 31l-33-3c5-37 33-52 76-52 45 0 72 20 72 64v82c-1 20 7 32 28 27v20c-31 9-61-2-59-35zM48-53c0 20 12 33 32 33 41-3 63-29 60-74-43 2-92-5-92 41" id="i"/><path fill="#1d262b" d="M108 0H70L1-190h34L89-25l56-165h34" id="j"/><g id="a"><use transform="matrix(0.07469135802469135,0,0,0.07469135802469135,0,0)" xlink:href="#h"/><use transform="matrix(0.07469135802469135,0,0,0.07469135802469135,13.444444444444443,0)" xlink:href="#i"/><use transform="matrix(0.07469135802469135,0,0,0.07469135802469135,28.38271604938271,0)" xlink:href="#j"/><use transform="matrix(0.07469135802469135,0,0,0.07469135802469135,41.82716049382715,0)" xlink:href="#i"/></g><path fill="#1d262b" d="M212-179c-10-28-35-45-73-45-59 0-87 40-87 99 0 60 29 101 89 101 43 0 62-24 78-52l27 14C228-24 195 4 139 4 59 4 22-46 18-125c-6-104 99-153 187-111 19 9 31 26 39 46" id="k"/><path fill="#1d262b" d="M24 0v-261h32V0H24" id="l"/><path fill="#1d262b" d="M135-143c-3-34-86-38-87 0 15 53 115 12 119 90S17 21 10-45l28-5c4 36 97 45 98 0-10-56-113-15-118-90-4-57 82-63 122-42 12 7 21 19 24 35" id="m"/><g id="b"><use transform="matrix(0.07469135802469135,0,0,0.07469135802469135,0,0)" xlink:href="#k"/><use transform="matrix(0.07469135802469135,0,0,0.07469135802469135,19.34506172839506,0)" xlink:href="#l"/><use transform="matrix(0.07469135802469135,0,0,0.07469135802469135,25.245679012345676,0)" xlink:href="#i"/><use transform="matrix(0.07469135802469135,0,0,0.07469135802469135,40.18395061728394,0)" xlink:href="#m"/><use transform="matrix(0.07469135802469135,0,0,0.07469135802469135,53.62839506172838,0)" xlink:href="#m"/></g><path fill="#1d262b" d="M240 0l2-218c-23 76-54 145-80 218h-23L58-218 59 0H30v-248h44l77 211c21-75 51-140 76-211h43V0h-30" id="n"/><path fill="#1d262b" d="M179-190L93 31C79 59 56 82 12 73V49c39 6 53-20 64-50L1-190h34L92-34l54-156h33" id="o"/><g id="c"><use transform="matrix(0.06172839506172839,0,0,0.06172839506172839,0,0)" xlink:href="#n"/><use transform="matrix(0.06172839506172839,0,0,0.06172839506172839,18.456790123456788,0)" xlink:href="#o"/><use transform="matrix(0.06172839506172839,0,0,0.06172839506172839,29.5679012345679,0)" xlink:href="#k"/><use transform="matrix(0.06172839506172839,0,0,0.06172839506172839,45.55555555555555,0)" xlink:href="#l"/><use transform="matrix(0.06172839506172839,0,0,0.06172839506172839,50.432098765432094,0)" xlink:href="#i"/><use transform="matrix(0.06172839506172839,0,0,0.06172839506172839,62.77777777777777,0)" xlink:href="#m"/><use transform="matrix(0.06172839506172839,0,0,0.06172839506172839,73.88888888888889,0)" xlink:href="#m"/></g><path fill="#1d262b" d="M232-93c-1 65-40 97-104 97C67 4 28-28 28-90v-158h33c8 89-33 224 67 224 102 0 64-133 71-224h33v155" id="p"/><path fill="#1d262b" d="M100-194c63 0 86 42 84 106H49c0 40 14 67 53 68 26 1 43-12 49-29l28 8c-11 28-37 45-77 45C44 4 14-33 15-96c1-61 26-98 85-98zm52 81c6-60-76-77-97-28-3 7-6 17-6 28h103" id="q"/><g id="d"><use transform="matrix(0.07469135802469135,0,0,0.07469135802469135,0,0)" xlink:href="#p"/><use transform="matrix(0.07469135802469135,0,0,0.07469135802469135,19.34506172839506,0)" xlink:href="#m"/><use transform="matrix(0.07469135802469135,0,0,0.07469135802469135,32.7895061728395,0)" xlink:href="#q"/><use transform="matrix(0.07469135802469135,0,0,0.07469135802469135,47.72777777777778,0)" xlink:href="#m"/></g><path fill="#1d262b" d="M33 0v-248h34V0H33" id="r"/><path fill="#1d262b" d="M210-169c-67 3-38 105-44 169h-31v-121c0-29-5-50-35-48C34-165 62-65 56 0H25l-1-190h30c1 10-1 24 2 32 10-44 99-50 107 0 11-21 27-35 58-36 85-2 47 119 55 194h-31v-121c0-29-5-49-35-48" id="s"/><path fill="#1d262b" d="M115-194c55 1 70 41 70 98S169 2 115 4C84 4 66-9 55-30l1 105H24l-1-265h31l2 30c10-21 28-34 59-34zm-8 174c40 0 45-34 45-75s-6-73-45-74c-42 0-51 32-51 76 0 43 10 73 51 73" id="t"/><path fill="#1d262b" d="M117-194c89-4 53 116 60 194h-32v-121c0-31-8-49-39-48C34-167 62-67 57 0H25l-1-190h30c1 10-1 24 2 32 11-22 29-35 61-36" id="u"/><path fill="#1d262b" d="M59-47c-2 24 18 29 38 22v24C64 9 27 4 27-40v-127H5v-23h24l9-43h21v43h35v23H59v120" id="v"/><g id="e"><use transform="matrix(0.07469135802469135,0,0,0.07469135802469135,0,0)" xlink:href="#r"/><use transform="matrix(0.07469135802469135,0,0,0.07469135802469135,7.469135802469134,0)" xlink:href="#s"/><use transform="matrix(0.07469135802469135,0,0,0.07469135802469135,29.801851851851843,0)" xlink:href="#t"/><use transform="matrix(0.07469135802469135,0,0,0.07469135802469135,44.740123456790116,0)" xlink:href="#l"/><use transform="matrix(0.07469135802469135,0,0,0.07469135802469135,50.64074074074073,0)" xlink:href="#q"/><use transform="matrix(0.07469135802469135,0,0,0.07469135802469135,65.579012345679,0)" xlink:href="#s"/><use transform="matrix(0.07469135802469135,0,0,0.07469135802469135,87.91172839506171,0)" xlink:href="#q"/><use transform="matrix(0.07469135802469135,0,0,0.07469135802469135,102.84999999999998,0)" xlink:href="#u"/><use transform="matrix(0.07469135802469135,0,0,0.07469135802469135,117.78827160493825,0)" xlink:href="#v"/><use transform="matrix(0.07469135802469135,0,0,0.07469135802469135,125.25740740740738,0)" xlink:href="#m"/></g><path fill="#1d262b" d="M106-169C34-169 62-67 57 0H25v-261h32l-1 103c12-21 28-36 61-36 89 0 53 116 60 194h-32v-121c2-32-8-49-39-48" id="w"/><path fill="#1d262b" d="M114-163C36-179 61-72 57 0H25l-1-190h30c1 12-1 29 2 39 6-27 23-49 58-41v29" id="x"/><path fill="#1d262b" d="M24-231v-30h32v30H24zM24 0v-190h32V0H24" id="y"/><g id="f"><use transform="matrix(0.07469135802469135,0,0,0.07469135802469135,0,0)" xlink:href="#r"/><use transform="matrix(0.07469135802469135,0,0,0.07469135802469135,7.469135802469134,0)" xlink:href="#u"/><use transform="matrix(0.07469135802469135,0,0,0.07469135802469135,22.407407407407405,0)" xlink:href="#w"/><use transform="matrix(0.07469135802469135,0,0,0.07469135802469135,37.34567901234567,0)" xlink:href="#q"/><use transform="matrix(0.07469135802469135,0,0,0.07469135802469135,52.283950617283935,0)" xlink:href="#x"/><use transform="matrix(0.07469135802469135,0,0,0.07469135802469135,61.1722222222222,0)" xlink:href="#y"/><use transform="matrix(0.07469135802469135,0,0,0.07469135802469135,67.07283950617281,0)" xlink:href="#v"/><use transform="matrix(0.07469135802469135,0,0,0.07469135802469135,74.54197530864195,0)" xlink:href="#m"/></g><path fill="#1d262b" d="M101-234c-31-9-42 10-38 44h38v23H63V0H32v-167H5v-23h27c-7-52 17-82 69-68v24" id="z"/><path fill="#1d262b" d="M100-194c62-1 85 37 85 99 1 63-27 99-86 99S16-35 15-95c0-66 28-99 85-99zM99-20c44 1 53-31 53-75 0-43-8-75-51-75s-53 32-53 75 10 74 51 75" id="A"/><g id="g"><use transform="matrix(0.07469135802469135,0,0,0.07469135802469135,0,0)" xlink:href="#z"/><use transform="matrix(0.07469135802469135,0,0,0.07469135802469135,7.469135802469134,0)" xlink:href="#x"/><use transform="matrix(0.07469135802469135,0,0,0.07469135802469135,16.357407407407404,0)" xlink:href="#A"/><use transform="matrix(0.07469135802469135,0,0,0.07469135802469135,31.295679012345673,0)" xlink:href="#s"/></g></defs></g></svg>