<svg xmlns="http://www.w3.org/2000/svg" xmlns:xlink="http://www.w3.org/1999/xlink" xmlns:lucid="lucid" width="1380" height="892.46"><g transform="translate(-260 -27.536771913851595)" lucid:page-tab-id="0_0"><path d="M280 126a6 6 0 0 1 6-6h168a6 6 0 0 1 6 6v68a6 6 0 0 1-6 6H286a6 6 0 0 1-6-6z" stroke="#4881b3" stroke-width="3" fill="#f5fbff"/><use xlink:href="#a" transform="matrix(1,0,0,1,285,125) translate(46.20370370370371 39.65277777777778)"/><path d="M280 206a6 6 0 0 1 6-6h168a6 6 0 0 1 6 6v108a6 6 0 0 1-6 6H286a6 6 0 0 1-6-6zM480 446a6 6 0 0 1 6-6h168a6 6 0 0 1 6 6v68a6 6 0 0 1-6 6H486a6 6 0 0 1-6-6z" stroke="#4881b3" stroke-width="3" fill="#f5fbff"/><use xlink:href="#b" transform="matrix(1,0,0,1,485,445) translate(10.370370370370367 26.52777777777778)"/><use xlink:href="#c" transform="matrix(1,0,0,1,485,445) translate(42.46913580246913 26.52777777777778)"/><use xlink:href="#d" transform="matrix(1,0,0,1,485,445) translate(133.7037037037037 26.52777777777778)"/><use xlink:href="#e" transform="matrix(1,0,0,1,485,445) translate(46.7283950617284 53.19444444444445)"/><path d="M480 526a6 6 0 0 1 6-6h168a6 6 0 0 1 6 6v108a6 6 0 0 1-6 6H486a6 6 0 0 1-6-6z" stroke="#4881b3" stroke-width="3" fill="#f5fbff"/><path d="M340.7 322.48v32a6 6 0 0 0 6 6H564a6 6 0 0 1 6 6v53.55" stroke="#224c72" stroke-width="2" fill="none"/><path d="M341.7 322.5h-2v-1.02h2z" stroke="#224c72" stroke-width=".05" fill="#224c72"/><path d="M570 435.3l-4.64-14.27h9.28z" stroke="#224c72" stroke-width="2" fill="#224c72"/><path d="M845.43 706a6 6 0 0 1 6-6h168a6 6 0 0 1 6 6v68a6 6 0 0 1-6 6h-168a6 6 0 0 1-6-6z" stroke="#4881b3" stroke-width="3" fill="#f5fbff"/><use xlink:href="#f" transform="matrix(1,0,0,1,850.4330708661416,705) translate(59.074074074074076 39.65277777777778)"/><path d="M845.43 786a6 6 0 0 1 6-6h168a6 6 0 0 1 6 6v108a6 6 0 0 1-6 6h-168a6 6 0 0 1-6-6zM819.47 706.4a6 6 0 0 1-7.72 3.53l-104.97-39.05a6 6 0 0 0-7.7 3.53l-2.8 7.5a2.3 2.3 0 0 1-4.3.05l-15.38-38.88a6.67 6.67 0 0 1 3.1-8.36l37.06-19.37a2.3 2.3 0 0 1 3.23 2.85l-2.8 7.5a6 6 0 0 0 3.53 7.7l104.97 39.06a6 6 0 0 1 3.53 7.72zM830 66a6 6 0 0 1 6-6h168a6 6 0 0 1 6 6v108a6 6 0 0 1-6 6H836a6 6 0 0 1-6-6z" stroke="#4881b3" stroke-width="3" fill="#f5fbff"/><use xlink:href="#b" transform="matrix(1,0,0,1,835,65) translate(13.425925925925938 45.27777777777778)"/><use xlink:href="#g" transform="matrix(1,0,0,1,835,65) translate(45.524691358024704 45.27777777777778)"/><use xlink:href="#d" transform="matrix(1,0,0,1,835,65) translate(130.64814814814815 45.27777777777778)"/><use xlink:href="#h" transform="matrix(1,0,0,1,835,65) translate(57.25308641975309 71.94444444444446)"/><path d="M830 186a6 6 0 0 1 6-6h168a6 6 0 0 1 6 6v108a6 6 0 0 1-6 6H836a6 6 0 0 1-6-6zM910.76 334.17a6 6 0 0 1 8.48 0l31.52 31.52a2.5 2.5 0 0 1-1.76 4.23h-8a6 6 0 0 0-6 6v258.14a6 6 0 0 0 6 6h8a2.5 2.5 0 0 1 1.76 4.24l-31.52 31.53a6 6 0 0 1-8.48 0l-31.52-31.52a2.5 2.5 0 0 1 1.76-4.23h8a6 6 0 0 0 6-6V375.93a6 6 0 0 0-6-6h-8a2.5 2.5 0 0 1-1.76-4.24z" stroke="#4881b3" stroke-width="3" fill="#f5fbff"/><path d="M1530 377.54V336a6 6 0 0 0-6-6h-113.57a6 6 0 0 1-6-6v-24.05" stroke="#224c72" stroke-width="2" fill="none"/><path d="M1531 378.54h-2v-1.03h2z" stroke="#224c72" stroke-width=".05" fill="#224c72"/><path d="M1404.43 284.68l4.64 14.27h-9.27z" stroke="#224c72" stroke-width="2" fill="#224c72"/><path d="M1150 402.54V348.5a6 6 0 0 1 6-6h178a6 6 0 0 0 6-6V300" stroke="#224c72" stroke-width="2" fill="none"/><path d="M1151 403.54h-2v-1.03h2z" stroke="#224c72" stroke-width=".05" fill="#224c72"/><path d="M1340 284.7l4.64 14.28h-9.28z" stroke="#224c72" stroke-width="2" fill="#224c72"/><path d="M1012.5 160h33a6 6 0 0 0 6-6V44.54a6 6 0 0 1 6-6H1364a6 6 0 0 1 6 6v15.5" stroke="#224c72" stroke-width="2" fill="none"/><path d="M1012.52 161h-1.03v-2h1.02z" stroke="#224c72" stroke-width=".05" fill="#224c72"/><path d="M1370 75.3l-4.64-14.27h9.28z" stroke="#224c72" stroke-width="2" fill="#224c72"/><path d="M1280 86a6 6 0 0 1 6-6h168a6 6 0 0 1 6 6v68a6 6 0 0 1-6 6h-168a6 6 0 0 1-6-6z" stroke="#4881b3" stroke-width="3" fill="#f5fbff"/><use xlink:href="#i" transform="matrix(1,0,0,1,1285,85) translate(59.72222222222223 39.65277777777778)"/><path d="M1280 166a6 6 0 0 1 6-6h168a6 6 0 0 1 6 6v108a6 6 0 0 1-6 6h-168a6 6 0 0 1-6-6zM1440 386a6 6 0 0 1 6-6h168a6 6 0 0 1 6 6v68a6 6 0 0 1-6 6h-168a6 6 0 0 1-6-6z" stroke="#4881b3" stroke-width="3" fill="#f5fbff"/><use xlink:href="#j" transform="matrix(1,0,0,1,1445,385) translate(56.66666666666667 39.65277777777778)"/><path d="M1440 466a6 6 0 0 1 6-6h168a6 6 0 0 1 6 6v108a6 6 0 0 1-6 6h-168a6 6 0 0 1-6-6zM1060 411a6 6 0 0 1 6-6h168a6 6 0 0 1 6 6v68a6 6 0 0 1-6 6h-168a6 6 0 0 1-6-6z" stroke="#4881b3" stroke-width="3" fill="#f5fbff"/><use xlink:href="#k" transform="matrix(1,0,0,1,1065,410) translate(36.94444444444444 39.65277777777778)"/><path d="M1060 491a6 6 0 0 1 6-6h168a6 6 0 0 1 6 6v108a6 6 0 0 1-6 6h-168a6 6 0 0 1-6-6z" stroke="#4881b3" stroke-width="3" fill="#f5fbff"/><path d="M1027.88 820H1144a6 6 0 0 0 6-6V624.97" stroke="#224c72" stroke-width="2" fill="none"/><path d="M1027.9 821h-1.02v-2h1.03z" stroke="#224c72" stroke-width=".05" fill="#224c72"/><path d="M1150 609.7l4.64 14.27h-9.28z" stroke="#224c72" stroke-width="2" fill="#224c72"/><path d="M1027.9 867H1524a6 6 0 0 0 6-6V599.97" stroke="#224c72" stroke-width="2" fill="none"/><path d="M1027.94 868h-1.02v-2h1.02z" stroke="#224c72" stroke-width=".05" fill="#224c72"/><path d="M1530 584.7l4.64 14.27h-9.28z" stroke="#224c72" stroke-width="2" fill="#224c72"/><defs><path fill="#1d262b" d="M240 0l2-218c-23 76-54 145-80 218h-23L58-218 59 0H30v-248h44l77 211c21-75 51-140 76-211h43V0h-30" id="l"/><path fill="#1d262b" d="M179-190L93 31C79 59 56 82 12 73V49c39 6 53-20 64-50L1-190h34L92-34l54-156h33" id="m"/><path fill="#1d262b" d="M141-36C126-15 110 5 73 4 37 3 15-17 15-53c-1-64 63-63 125-63 3-35-9-54-41-54-24 1-41 7-42 31l-33-3c5-37 33-52 76-52 45 0 72 20 72 64v82c-1 20 7 32 28 27v20c-31 9-61-2-59-35zM48-53c0 20 12 33 32 33 41-3 63-29 60-74-43 2-92-5-92 41" id="n"/><path fill="#1d262b" d="M24-231v-30h32v30H24zM24 0v-190h32V0H24" id="o"/><path fill="#1d262b" d="M117-194c89-4 53 116 60 194h-32v-121c0-31-8-49-39-48C34-167 62-67 57 0H25l-1-190h30c1 10-1 24 2 32 11-22 29-35 61-36" id="p"/><g id="a"><use transform="matrix(0.06172839506172839,0,0,0.06172839506172839,0,0)" xlink:href="#l"/><use transform="matrix(0.06172839506172839,0,0,0.06172839506172839,18.456790123456788,0)" xlink:href="#m"/><use transform="matrix(0.06172839506172839,0,0,0.06172839506172839,29.5679012345679,0)" xlink:href="#l"/><use transform="matrix(0.06172839506172839,0,0,0.06172839506172839,48.02469135802468,0)" xlink:href="#n"/><use transform="matrix(0.06172839506172839,0,0,0.06172839506172839,60.37037037037036,0)" xlink:href="#o"/><use transform="matrix(0.06172839506172839,0,0,0.06172839506172839,65.2469135802469,0)" xlink:href="#p"/></g><path fill="#1d262b" d="M18-100v-36l175-74v27L42-118l151 64v27" id="q"/><g id="b"><use transform="matrix(0.06172839506172839,0,0,0.06172839506172839,0,0)" xlink:href="#q"/><use transform="matrix(0.06172839506172839,0,0,0.06172839506172839,12.962962962962962,0)" xlink:href="#q"/></g><path fill="#1d262b" d="M59-47c-2 24 18 29 38 22v24C64 9 27 4 27-40v-127H5v-23h24l9-43h21v43h35v23H59v120" id="r"/><path fill="#1d262b" d="M100-194c63 0 86 42 84 106H49c0 40 14 67 53 68 26 1 43-12 49-29l28 8c-11 28-37 45-77 45C44 4 14-33 15-96c1-61 26-98 85-98zm52 81c6-60-76-77-97-28-3 7-6 17-6 28h103" id="s"/><path fill="#1d262b" d="M114-163C36-179 61-72 57 0H25l-1-190h30c1 12-1 29 2 39 6-27 23-49 58-41v29" id="t"/><path fill="#1d262b" d="M101-234c-31-9-42 10-38 44h38v23H63V0H32v-167H5v-23h27c-7-52 17-82 69-68v24" id="u"/><path fill="#1d262b" d="M96-169c-40 0-48 33-48 73s9 75 48 75c24 0 41-14 43-38l32 2c-6 37-31 61-74 61-59 0-76-41-82-99-10-93 101-131 147-64 4 7 5 14 7 22l-32 3c-4-21-16-35-41-35" id="v"/><g id="c"><use transform="matrix(0.06172839506172839,0,0,0.06172839506172839,0,0)" xlink:href="#o"/><use transform="matrix(0.06172839506172839,0,0,0.06172839506172839,4.876543209876543,0)" xlink:href="#p"/><use transform="matrix(0.06172839506172839,0,0,0.06172839506172839,17.22222222222222,0)" xlink:href="#r"/><use transform="matrix(0.06172839506172839,0,0,0.06172839506172839,23.39506172839506,0)" xlink:href="#s"/><use transform="matrix(0.06172839506172839,0,0,0.06172839506172839,35.74074074074074,0)" xlink:href="#t"/><use transform="matrix(0.06172839506172839,0,0,0.06172839506172839,43.08641975308642,0)" xlink:href="#u"/><use transform="matrix(0.06172839506172839,0,0,0.06172839506172839,49.25925925925926,0)" xlink:href="#n"/><use transform="matrix(0.06172839506172839,0,0,0.06172839506172839,61.60493827160494,0)" xlink:href="#v"/><use transform="matrix(0.06172839506172839,0,0,0.06172839506172839,72.71604938271605,0)" xlink:href="#s"/></g><path fill="#1d262b" d="M18-27v-27l151-64-151-65v-27l175 74v36" id="w"/><g id="d"><use transform="matrix(0.06172839506172839,0,0,0.06172839506172839,0,0)" xlink:href="#w"/><use transform="matrix(0.06172839506172839,0,0,0.06172839506172839,12.962962962962962,0)" xlink:href="#w"/></g><path fill="#1d262b" d="M185-189c-5-48-123-54-124 2 14 75 158 14 163 119 3 78-121 87-175 55-17-10-28-26-33-46l33-7c5 56 141 63 141-1 0-78-155-14-162-118-5-82 145-84 179-34 5 7 8 16 11 25" id="x"/><path fill="#1d262b" d="M106-169C34-169 62-67 57 0H25v-261h32l-1 103c12-21 28-36 61-36 89 0 53 116 60 194h-32v-121c2-32-8-49-39-48" id="y"/><path fill="#1d262b" d="M100-194c62-1 85 37 85 99 1 63-27 99-86 99S16-35 15-95c0-66 28-99 85-99zM99-20c44 1 53-31 53-75 0-43-8-75-51-75s-53 32-53 75 10 74 51 75" id="z"/><path fill="#1d262b" d="M115-194c55 1 70 41 70 98S169 2 115 4C84 4 66-9 55-30l1 105H24l-1-265h31l2 30c10-21 28-34 59-34zm-8 174c40 0 45-34 45-75s-6-73-45-74c-42 0-51 32-51 76 0 43 10 73 51 73" id="A"/><path fill="#1d262b" d="M33 0v-248h34V0H33" id="B"/><g id="e"><use transform="matrix(0.06172839506172839,0,0,0.06172839506172839,0,0)" xlink:href="#x"/><use transform="matrix(0.06172839506172839,0,0,0.06172839506172839,14.814814814814813,0)" xlink:href="#y"/><use transform="matrix(0.06172839506172839,0,0,0.06172839506172839,27.160493827160494,0)" xlink:href="#z"/><use transform="matrix(0.06172839506172839,0,0,0.06172839506172839,39.50617283950617,0)" xlink:href="#A"/><use transform="matrix(0.06172839506172839,0,0,0.06172839506172839,51.85185185185185,0)" xlink:href="#B"/><use transform="matrix(0.06172839506172839,0,0,0.06172839506172839,58.02469135802469,0)" xlink:href="#p"/><use transform="matrix(0.06172839506172839,0,0,0.06172839506172839,70.37037037037037,0)" xlink:href="#r"/></g><g id="f"><use transform="matrix(0.06172839506172839,0,0,0.06172839506172839,0,0)" xlink:href="#x"/><use transform="matrix(0.06172839506172839,0,0,0.06172839506172839,14.814814814814813,0)" xlink:href="#y"/><use transform="matrix(0.06172839506172839,0,0,0.06172839506172839,27.160493827160494,0)" xlink:href="#z"/><use transform="matrix(0.06172839506172839,0,0,0.06172839506172839,39.50617283950617,0)" xlink:href="#A"/></g><path fill="#1d262b" d="M115-194c53 0 69 39 70 98 0 66-23 100-70 100C84 3 66-7 56-30L54 0H23l1-261h32v101c10-23 28-34 59-34zm-8 174c40 0 45-34 45-75 0-40-5-75-45-74-42 0-51 32-51 76 0 43 10 73 51 73" id="C"/><path fill="#1d262b" d="M135-143c-3-34-86-38-87 0 15 53 115 12 119 90S17 21 10-45l28-5c4 36 97 45 98 0-10-56-113-15-118-90-4-57 82-63 122-42 12 7 21 19 24 35" id="D"/><g id="g"><use transform="matrix(0.06172839506172839,0,0,0.06172839506172839,0,0)" xlink:href="#n"/><use transform="matrix(0.06172839506172839,0,0,0.06172839506172839,12.345679012345679,0)" xlink:href="#C"/><use transform="matrix(0.06172839506172839,0,0,0.06172839506172839,24.691358024691358,0)" xlink:href="#D"/><use transform="matrix(0.06172839506172839,0,0,0.06172839506172839,35.80246913580247,0)" xlink:href="#r"/><use transform="matrix(0.06172839506172839,0,0,0.06172839506172839,41.97530864197531,0)" xlink:href="#t"/><use transform="matrix(0.06172839506172839,0,0,0.06172839506172839,49.32098765432099,0)" xlink:href="#n"/><use transform="matrix(0.06172839506172839,0,0,0.06172839506172839,61.666666666666664,0)" xlink:href="#v"/><use transform="matrix(0.06172839506172839,0,0,0.06172839506172839,72.77777777777777,0)" xlink:href="#r"/></g><path fill="#1d262b" d="M84 4C-5 8 30-112 23-190h32v120c0 31 7 50 39 49 72-2 45-101 50-169h31l1 190h-30c-1-10 1-25-2-33-11 22-28 36-60 37" id="E"/><g id="h"><use transform="matrix(0.06172839506172839,0,0,0.06172839506172839,0,0)" xlink:href="#l"/><use transform="matrix(0.06172839506172839,0,0,0.06172839506172839,18.456790123456788,0)" xlink:href="#s"/><use transform="matrix(0.06172839506172839,0,0,0.06172839506172839,30.80246913580247,0)" xlink:href="#p"/><use transform="matrix(0.06172839506172839,0,0,0.06172839506172839,43.148148148148145,0)" xlink:href="#E"/></g><path fill="#1d262b" d="M63-220v92h138v28H63V0H30v-248h175v28H63" id="F"/><path fill="#1d262b" d="M85-194c31 0 48 13 60 33l-1-100h32l1 261h-30c-2-10 0-23-3-31C134-8 116 4 85 4 32 4 16-35 15-94c0-66 23-100 70-100zm9 24c-40 0-46 34-46 75 0 40 6 74 45 74 42 0 51-32 51-76 0-42-9-74-50-73" id="G"/><g id="i"><use transform="matrix(0.06172839506172839,0,0,0.06172839506172839,0,0)" xlink:href="#F"/><use transform="matrix(0.06172839506172839,0,0,0.06172839506172839,13.518518518518517,0)" xlink:href="#z"/><use transform="matrix(0.06172839506172839,0,0,0.06172839506172839,25.864197530864196,0)" xlink:href="#z"/><use transform="matrix(0.06172839506172839,0,0,0.06172839506172839,38.20987654320987,0)" xlink:href="#G"/></g><path fill="#1d262b" d="M140-251c81 0 123 46 123 126C263-46 219 4 140 4 59 4 17-45 17-125s42-126 123-126zm0 227c63 0 89-41 89-101s-29-99-89-99c-61 0-89 39-89 99S79-25 140-24" id="H"/><g id="j"><use transform="matrix(0.06172839506172839,0,0,0.06172839506172839,0,0)" xlink:href="#H"/><use transform="matrix(0.06172839506172839,0,0,0.06172839506172839,17.28395061728395,0)" xlink:href="#t"/><use transform="matrix(0.06172839506172839,0,0,0.06172839506172839,24.629629629629626,0)" xlink:href="#G"/><use transform="matrix(0.06172839506172839,0,0,0.06172839506172839,36.9753086419753,0)" xlink:href="#s"/><use transform="matrix(0.06172839506172839,0,0,0.06172839506172839,49.32098765432098,0)" xlink:href="#t"/></g><path fill="#1d262b" d="M212-179c-10-28-35-45-73-45-59 0-87 40-87 99 0 60 29 101 89 101 43 0 62-24 78-52l27 14C228-24 195 4 139 4 59 4 22-46 18-125c-6-104 99-153 187-111 19 9 31 26 39 46" id="I"/><path fill="#1d262b" d="M210-169c-67 3-38 105-44 169h-31v-121c0-29-5-50-35-48C34-165 62-65 56 0H25l-1-190h30c1 10-1 24 2 32 10-44 99-50 107 0 11-21 27-35 58-36 85-2 47 119 55 194h-31v-121c0-29-5-49-35-48" id="J"/><g id="k"><use transform="matrix(0.06172839506172839,0,0,0.06172839506172839,0,0)" xlink:href="#I"/><use transform="matrix(0.06172839506172839,0,0,0.06172839506172839,15.987654320987653,0)" xlink:href="#E"/><use transform="matrix(0.06172839506172839,0,0,0.06172839506172839,28.333333333333332,0)" xlink:href="#D"/><use transform="matrix(0.06172839506172839,0,0,0.06172839506172839,39.44444444444444,0)" xlink:href="#r"/><use transform="matrix(0.06172839506172839,0,0,0.06172839506172839,45.617283950617285,0)" xlink:href="#z"/><use transform="matrix(0.06172839506172839,0,0,0.06172839506172839,57.96296296296296,0)" xlink:href="#J"/><use transform="matrix(0.06172839506172839,0,0,0.06172839506172839,76.41975308641975,0)" xlink:href="#s"/><use transform="matrix(0.06172839506172839,0,0,0.06172839506172839,88.76543209876543,0)" xlink:href="#t"/></g></defs></g></svg>